<?xml version="1.0" encoding="UTF-8"?>
<svg id="Layer_1" xmlns="http://www.w3.org/2000/svg" xmlns:xlink="http://www.w3.org/1999/xlink" version="1.1" viewBox="0 0 100 100">
  <!-- Generator: Adobe Illustrator 30.1.0, SVG Export Plug-In . SVG Version: 2.1.1 Build 136)  -->
  <defs>
    <style>
      .st0 {
        fill: none;
      }

      .st1 {
        font-family: Helvetica-Light, Helvetica;
        font-size: 104.49px;
        font-weight: 300;
        isolation: isolate;
      }

      .st1, .st2 {
        fill: #fff;
      }

      .st3 {
        stroke: #fff;
        stroke-width: 2px;
      }

      .st4 {
        clip-path: url(#clippath);
      }
    </style>
    <clipPath id="clippath">
      <circle class="st0" cx="50.99" cy="49.93" r="30.36"/>
    </clipPath>
  </defs>
  <circle class="st3" cx="50" cy="50" r="48"/>
  <text class="st1" transform="translate(8.82 86.93)"><tspan x="0" y="0">®</tspan></text>
  <circle cx="50.99" cy="49.93" r="32.11"/>
  <g class="st4">
    <g id="_x37_tPbWN">
      <path class="st2" d="M72.33,70.66h-10.26s-4.97-6.95-4.97-6.95l-7.25-10.23h-10.49s0,17.19,0,17.19h-7.79s0-42.38,0-42.38h28.48s10.46,10.47,10.46,10.47v4.26s-9.38,9.3-9.38,9.3l-.98.92,5.18,7.45,6.99,9.96ZM57.85,43.97l3.14-3.17-5.43-5.39h-16.19s0,10.87,0,10.87h16.32s2.15-2.31,2.15-2.31Z"/>
    </g>
  </g>
</svg>